<mxfile host="app.diagrams.net" modified="2024-03-28T15:03:27.587Z" agent="Mozilla/5.0 (Macintosh; Intel Mac OS X 10.15; rv:123.0) Gecko/20100101 Firefox/123.0" etag="Z00ihrQCmAJEsMw7yk2F" version="24.0.0" type="github">
  <diagram name="Page-1" id="LjrLu1oX0uWmBEWVEw0W">
    <mxGraphModel dx="1652" dy="1061" grid="1" gridSize="10" guides="1" tooltips="1" connect="1" arrows="1" fold="1" page="1" pageScale="1" pageWidth="850" pageHeight="1100" math="0" shadow="0">
      <root>
        <mxCell id="0" />
        <mxCell id="1" parent="0" />
        <mxCell id="0xAJBplMdVnDTb3CLGRR-1" value="&lt;font style=&quot;font-size: 18px;&quot;&gt;Java App &quot;AFMC&quot;&lt;/font&gt;" style="swimlane;whiteSpace=wrap;html=1;startSize=50;" vertex="1" parent="1">
          <mxGeometry x="300" y="140" width="280" height="1070" as="geometry" />
        </mxCell>
        <mxCell id="0xAJBplMdVnDTb3CLGRR-8" value="" style="ellipse;html=1;shape=startState;fillColor=#000000;strokeColor=#ff0000;" vertex="1" parent="0xAJBplMdVnDTb3CLGRR-1">
          <mxGeometry x="125" y="60" width="30" height="30" as="geometry" />
        </mxCell>
        <mxCell id="0xAJBplMdVnDTb3CLGRR-11" value="&lt;div&gt;Login in AFMC API 2.0 &lt;br&gt;&lt;/div&gt;&lt;div&gt;(JWT)&lt;br&gt;&lt;/div&gt;" style="rounded=0;whiteSpace=wrap;html=1;" vertex="1" parent="0xAJBplMdVnDTb3CLGRR-1">
          <mxGeometry x="40" y="130" width="200" height="60" as="geometry" />
        </mxCell>
        <mxCell id="0xAJBplMdVnDTb3CLGRR-12" value="&lt;div class=&quot;flex flex-grow flex-col max-w-full&quot;&gt;&lt;div class=&quot;min-h-[20px] text-message flex flex-col items-start gap-3 whitespace-pre-wrap break-words [.text-message+&amp;amp;]:mt-5 overflow-x-auto&quot; data-message-id=&quot;ba4a94b0-e800-44d9-a552-1e2c5696c58b&quot; data-message-author-role=&quot;assistant&quot;&gt;&lt;div class=&quot;markdown prose w-full break-words dark:prose-invert dark&quot;&gt;&lt;p&gt;If the login is successful, send a GraphQL query to retrieve visiting students&#39; and placement data in JSON format.&lt;/p&gt;&lt;/div&gt;&lt;/div&gt;&lt;/div&gt;" style="rounded=0;whiteSpace=wrap;html=1;" vertex="1" parent="0xAJBplMdVnDTb3CLGRR-1">
          <mxGeometry x="40" y="230" width="200" height="120" as="geometry" />
        </mxCell>
        <mxCell id="0xAJBplMdVnDTb3CLGRR-16" value="&lt;div class=&quot;flex flex-grow flex-col max-w-full&quot;&gt;&lt;div class=&quot;min-h-[20px] text-message flex flex-col items-start gap-3 whitespace-pre-wrap break-words [.text-message+&amp;amp;]:mt-5 overflow-x-auto&quot; data-message-id=&quot;58550d30-df5e-4ae6-811e-702b68abca88&quot; data-message-author-role=&quot;assistant&quot;&gt;&lt;div class=&quot;markdown prose w-full break-words dark:prose-invert dark&quot;&gt;&lt;p&gt;If the login is successful, return Student, Placement, or Report information from the SQL database (in JSON format)&lt;/p&gt;&lt;/div&gt;&lt;/div&gt;&lt;/div&gt;" style="rounded=0;whiteSpace=wrap;html=1;" vertex="1" parent="0xAJBplMdVnDTb3CLGRR-1">
          <mxGeometry x="40" y="442" width="200" height="120" as="geometry" />
        </mxCell>
        <mxCell id="0xAJBplMdVnDTb3CLGRR-26" value="" style="endArrow=classic;html=1;rounded=0;entryX=0.5;entryY=0;entryDx=0;entryDy=0;exitX=0.5;exitY=1;exitDx=0;exitDy=0;" edge="1" parent="0xAJBplMdVnDTb3CLGRR-1" source="0xAJBplMdVnDTb3CLGRR-8" target="0xAJBplMdVnDTb3CLGRR-11">
          <mxGeometry width="50" height="50" relative="1" as="geometry">
            <mxPoint x="470" y="80" as="sourcePoint" />
            <mxPoint x="510" y="320" as="targetPoint" />
          </mxGeometry>
        </mxCell>
        <mxCell id="0xAJBplMdVnDTb3CLGRR-27" value="" style="endArrow=classic;html=1;rounded=0;" edge="1" parent="0xAJBplMdVnDTb3CLGRR-1" source="0xAJBplMdVnDTb3CLGRR-11" target="0xAJBplMdVnDTb3CLGRR-12">
          <mxGeometry width="50" height="50" relative="1" as="geometry">
            <mxPoint x="460" y="370" as="sourcePoint" />
            <mxPoint x="510" y="320" as="targetPoint" />
          </mxGeometry>
        </mxCell>
        <mxCell id="0xAJBplMdVnDTb3CLGRR-2" value="MSSQL Database" style="swimlane;whiteSpace=wrap;html=1;fontSize=18;startSize=50;" vertex="1" parent="1">
          <mxGeometry x="580" y="140" width="280" height="1070" as="geometry" />
        </mxCell>
        <mxCell id="0xAJBplMdVnDTb3CLGRR-13" value="&lt;div&gt;Store data in database tables&lt;br&gt;&lt;/div&gt;&lt;div&gt;(STUDENT, PLACEMENT, AGENCY)&lt;br&gt;&lt;/div&gt;" style="rounded=0;whiteSpace=wrap;html=1;" vertex="1" parent="0xAJBplMdVnDTb3CLGRR-2">
          <mxGeometry x="50" y="230" width="200" height="120" as="geometry" />
        </mxCell>
        <mxCell id="0xAJBplMdVnDTb3CLGRR-25" value="" style="ellipse;html=1;shape=endState;fillColor=#000000;strokeColor=#ff0000;" vertex="1" parent="0xAJBplMdVnDTb3CLGRR-2">
          <mxGeometry x="135" y="390" width="30" height="30" as="geometry" />
        </mxCell>
        <mxCell id="0xAJBplMdVnDTb3CLGRR-30" value="" style="endArrow=classic;html=1;rounded=0;entryX=0.5;entryY=0;entryDx=0;entryDy=0;exitX=0.5;exitY=1;exitDx=0;exitDy=0;" edge="1" parent="0xAJBplMdVnDTb3CLGRR-2" source="0xAJBplMdVnDTb3CLGRR-13" target="0xAJBplMdVnDTb3CLGRR-25">
          <mxGeometry width="50" height="50" relative="1" as="geometry">
            <mxPoint x="180" y="370" as="sourcePoint" />
            <mxPoint x="230" y="320" as="targetPoint" />
          </mxGeometry>
        </mxCell>
        <mxCell id="0xAJBplMdVnDTb3CLGRR-3" value="&lt;font style=&quot;font-size: 18px;&quot;&gt;Power Automate&lt;/font&gt;" style="swimlane;whiteSpace=wrap;html=1;startSize=50;" vertex="1" parent="1">
          <mxGeometry x="860" y="140" width="280" height="1070" as="geometry" />
        </mxCell>
        <mxCell id="0xAJBplMdVnDTb3CLGRR-14" value="" style="ellipse;html=1;shape=startState;fillColor=#000000;strokeColor=#ff0000;" vertex="1" parent="0xAJBplMdVnDTb3CLGRR-3">
          <mxGeometry x="128" y="365" width="30" height="30" as="geometry" />
        </mxCell>
        <mxCell id="0xAJBplMdVnDTb3CLGRR-15" value="&lt;div&gt;Send HTTP authentication and GET request to Java App&lt;/div&gt;&lt;div&gt;(Daily)&lt;br&gt;&lt;/div&gt;" style="rounded=0;whiteSpace=wrap;html=1;" vertex="1" parent="0xAJBplMdVnDTb3CLGRR-3">
          <mxGeometry x="42" y="442" width="200" height="120" as="geometry" />
        </mxCell>
        <mxCell id="0xAJBplMdVnDTb3CLGRR-17" value="&lt;div&gt;Fetch the data from the SharePoint list&amp;nbsp;&lt;/div&gt;&lt;div&gt;(e.g. AFMC MTD SharePoint list)&lt;/div&gt;" style="rounded=0;whiteSpace=wrap;html=1;" vertex="1" parent="0xAJBplMdVnDTb3CLGRR-3">
          <mxGeometry x="40" y="620" width="200" height="120" as="geometry" />
        </mxCell>
        <mxCell id="0xAJBplMdVnDTb3CLGRR-23" value="" style="ellipse;html=1;shape=endState;fillColor=#000000;strokeColor=#ff0000;" vertex="1" parent="0xAJBplMdVnDTb3CLGRR-3">
          <mxGeometry x="125" y="973" width="30" height="30" as="geometry" />
        </mxCell>
        <mxCell id="0xAJBplMdVnDTb3CLGRR-24" value="Create / Update items in the SharePoint list" style="rounded=0;whiteSpace=wrap;html=1;" vertex="1" parent="0xAJBplMdVnDTb3CLGRR-3">
          <mxGeometry x="40" y="800" width="200" height="120" as="geometry" />
        </mxCell>
        <mxCell id="0xAJBplMdVnDTb3CLGRR-28" value="" style="endArrow=classic;html=1;rounded=0;exitX=0.5;exitY=1;exitDx=0;exitDy=0;" edge="1" parent="0xAJBplMdVnDTb3CLGRR-3" source="0xAJBplMdVnDTb3CLGRR-14" target="0xAJBplMdVnDTb3CLGRR-15">
          <mxGeometry width="50" height="50" relative="1" as="geometry">
            <mxPoint x="-410" y="412" as="sourcePoint" />
            <mxPoint x="-410" y="452" as="targetPoint" />
          </mxGeometry>
        </mxCell>
        <mxCell id="0xAJBplMdVnDTb3CLGRR-35" value="" style="endArrow=classic;html=1;rounded=0;exitX=0.5;exitY=1;exitDx=0;exitDy=0;entryX=0.5;entryY=0;entryDx=0;entryDy=0;" edge="1" parent="0xAJBplMdVnDTb3CLGRR-3" source="0xAJBplMdVnDTb3CLGRR-17" target="0xAJBplMdVnDTb3CLGRR-24">
          <mxGeometry width="50" height="50" relative="1" as="geometry">
            <mxPoint x="130" y="810" as="sourcePoint" />
            <mxPoint x="-150" y="780" as="targetPoint" />
          </mxGeometry>
        </mxCell>
        <mxCell id="0xAJBplMdVnDTb3CLGRR-36" value="" style="endArrow=classic;html=1;rounded=0;entryX=0.5;entryY=0;entryDx=0;entryDy=0;" edge="1" parent="0xAJBplMdVnDTb3CLGRR-3" source="0xAJBplMdVnDTb3CLGRR-24" target="0xAJBplMdVnDTb3CLGRR-23">
          <mxGeometry width="50" height="50" relative="1" as="geometry">
            <mxPoint x="130" y="810" as="sourcePoint" />
            <mxPoint x="180" y="760" as="targetPoint" />
          </mxGeometry>
        </mxCell>
        <mxCell id="0xAJBplMdVnDTb3CLGRR-4" value="SharePoint" style="swimlane;whiteSpace=wrap;html=1;startSize=50;fontSize=18;" vertex="1" parent="1">
          <mxGeometry x="1140" y="140" width="280" height="1070" as="geometry" />
        </mxCell>
        <mxCell id="0xAJBplMdVnDTb3CLGRR-39" value="" style="edgeStyle=orthogonalEdgeStyle;rounded=0;orthogonalLoop=1;jettySize=auto;html=1;" edge="1" parent="0xAJBplMdVnDTb3CLGRR-4" source="0xAJBplMdVnDTb3CLGRR-18" target="0xAJBplMdVnDTb3CLGRR-20">
          <mxGeometry relative="1" as="geometry" />
        </mxCell>
        <mxCell id="0xAJBplMdVnDTb3CLGRR-18" value="User login the SharePoint list" style="rounded=0;whiteSpace=wrap;html=1;" vertex="1" parent="0xAJBplMdVnDTb3CLGRR-4">
          <mxGeometry x="40" y="655" width="200" height="120" as="geometry" />
        </mxCell>
        <mxCell id="0xAJBplMdVnDTb3CLGRR-38" style="edgeStyle=orthogonalEdgeStyle;rounded=0;orthogonalLoop=1;jettySize=auto;html=1;exitX=0.5;exitY=1;exitDx=0;exitDy=0;entryX=0.5;entryY=0;entryDx=0;entryDy=0;" edge="1" parent="0xAJBplMdVnDTb3CLGRR-4" source="0xAJBplMdVnDTb3CLGRR-19" target="0xAJBplMdVnDTb3CLGRR-18">
          <mxGeometry relative="1" as="geometry" />
        </mxCell>
        <mxCell id="0xAJBplMdVnDTb3CLGRR-19" value="" style="ellipse;html=1;shape=startState;fillColor=#000000;strokeColor=#ff0000;" vertex="1" parent="0xAJBplMdVnDTb3CLGRR-4">
          <mxGeometry x="125" y="575" width="30" height="30" as="geometry" />
        </mxCell>
        <mxCell id="0xAJBplMdVnDTb3CLGRR-40" value="" style="edgeStyle=orthogonalEdgeStyle;rounded=0;orthogonalLoop=1;jettySize=auto;html=1;" edge="1" parent="0xAJBplMdVnDTb3CLGRR-4" source="0xAJBplMdVnDTb3CLGRR-20" target="0xAJBplMdVnDTb3CLGRR-22">
          <mxGeometry relative="1" as="geometry" />
        </mxCell>
        <mxCell id="0xAJBplMdVnDTb3CLGRR-20" value="User download data / report &lt;br&gt;(in CVS format)" style="rounded=0;whiteSpace=wrap;html=1;" vertex="1" parent="0xAJBplMdVnDTb3CLGRR-4">
          <mxGeometry x="40" y="824" width="200" height="120" as="geometry" />
        </mxCell>
        <mxCell id="0xAJBplMdVnDTb3CLGRR-22" value="" style="ellipse;html=1;shape=endState;fillColor=#000000;strokeColor=#ff0000;" vertex="1" parent="0xAJBplMdVnDTb3CLGRR-4">
          <mxGeometry x="125" y="1007" width="30" height="30" as="geometry" />
        </mxCell>
        <mxCell id="0xAJBplMdVnDTb3CLGRR-29" value="" style="endArrow=classic;html=1;rounded=0;exitX=1;exitY=0.5;exitDx=0;exitDy=0;entryX=0;entryY=0.5;entryDx=0;entryDy=0;" edge="1" parent="1" source="0xAJBplMdVnDTb3CLGRR-12" target="0xAJBplMdVnDTb3CLGRR-13">
          <mxGeometry width="50" height="50" relative="1" as="geometry">
            <mxPoint x="760" y="510" as="sourcePoint" />
            <mxPoint x="810" y="460" as="targetPoint" />
          </mxGeometry>
        </mxCell>
        <mxCell id="0xAJBplMdVnDTb3CLGRR-34" value="" style="endArrow=classic;html=1;rounded=0;entryX=1;entryY=0.5;entryDx=0;entryDy=0;" edge="1" parent="1" source="0xAJBplMdVnDTb3CLGRR-15" target="0xAJBplMdVnDTb3CLGRR-16">
          <mxGeometry width="50" height="50" relative="1" as="geometry">
            <mxPoint x="790" y="630" as="sourcePoint" />
            <mxPoint x="840" y="580" as="targetPoint" />
          </mxGeometry>
        </mxCell>
        <mxCell id="0xAJBplMdVnDTb3CLGRR-32" value="" style="endArrow=classic;html=1;rounded=0;exitX=0.5;exitY=1;exitDx=0;exitDy=0;entryX=0;entryY=0.5;entryDx=0;entryDy=0;" edge="1" parent="1" source="0xAJBplMdVnDTb3CLGRR-16" target="0xAJBplMdVnDTb3CLGRR-17">
          <mxGeometry width="50" height="50" relative="1" as="geometry">
            <mxPoint x="1010" y="522" as="sourcePoint" />
            <mxPoint x="1010" y="592" as="targetPoint" />
            <Array as="points">
              <mxPoint x="440" y="820" />
            </Array>
          </mxGeometry>
        </mxCell>
      </root>
    </mxGraphModel>
  </diagram>
</mxfile>
